<svg width="398" height="144" viewBox="0 0 398 144" fill="none" xmlns="http://www.w3.org/2000/svg">
<rect width="398" height="144" fill="white"/>
<path d="M233.37 63.435C235.937 62.8117 238.412 62.5 240.795 62.5C242.702 62.5 244.425 62.72 245.965 63.16C247.505 63.6 248.825 64.2967 249.925 65.25C251.025 66.2033 251.868 67.4317 252.455 68.935C253.078 70.4383 253.39 72.2533 253.39 74.38C253.39 77.02 252.877 79.165 251.85 80.815C250.86 82.4283 249.503 83.6567 247.78 84.5C248.22 85.2333 248.77 86.2417 249.43 87.525C250.127 88.7717 250.823 90.165 251.52 91.705C252.253 93.2083 252.95 94.7667 253.61 96.38C254.307 97.9933 254.893 99.5333 255.37 101H250.42C250.017 99.9 249.503 98.6533 248.88 97.26C248.293 95.8667 247.67 94.4917 247.01 93.135C246.35 91.7417 245.69 90.4217 245.03 89.175C244.37 87.8917 243.783 86.81 243.27 85.93C242.683 86.0033 242.078 86.0583 241.455 86.095C240.832 86.1317 240.208 86.15 239.585 86.15H238.21V101H233.37V63.435ZM238.21 82.08H240.3C242.83 82.08 244.773 81.5117 246.13 80.375C247.487 79.2017 248.165 77.2033 248.165 74.38C248.165 72.95 247.982 71.7583 247.615 70.805C247.285 69.815 246.79 69.045 246.13 68.495C245.507 67.9083 244.737 67.4867 243.82 67.23C242.94 66.9733 241.95 66.845 240.85 66.845C239.897 66.845 239.017 66.9 238.21 67.01V82.08ZM273.984 62.885C274.864 65.635 275.726 68.4217 276.569 71.245C277.449 74.0317 278.292 76.965 279.099 80.045C279.942 83.125 280.767 86.3883 281.574 89.835C282.417 93.2817 283.261 97.0033 284.104 101H279.154C278.861 99.35 278.549 97.7183 278.219 96.105C277.926 94.4917 277.614 92.8783 277.284 91.265H265.294C264.927 92.8783 264.597 94.4917 264.304 96.105C264.011 97.7183 263.717 99.35 263.424 101H258.639C259.446 97.0033 260.271 93.2817 261.114 89.835C261.957 86.3883 262.782 83.125 263.589 80.045C264.432 76.965 265.276 74.0317 266.119 71.245C266.999 68.4217 267.879 65.635 268.759 62.885H273.984ZM271.289 68.495C270.372 71.5383 269.492 74.6 268.649 77.68C267.806 80.76 266.999 83.9133 266.229 87.14H276.294C275.561 83.9133 274.772 80.76 273.929 77.68C273.086 74.6 272.206 71.5383 271.289 68.495ZM307.446 67.395C307.923 69.595 308.436 71.9233 308.986 74.38C309.536 76.8367 310.104 79.275 310.691 81.695C311.314 84.115 311.938 86.4617 312.561 88.735C313.184 91.0083 313.771 93.08 314.321 94.95C314.761 92.8967 315.183 90.6233 315.586 88.13C315.989 85.6 316.374 82.96 316.741 80.21C317.144 77.46 317.511 74.6183 317.841 71.685C318.171 68.7517 318.446 65.8183 318.666 62.885H323.506C322.663 70.255 321.709 77.0383 320.646 83.235C319.619 89.4317 318.409 95.3533 317.016 101H312.011C311.461 99.2033 310.856 97.205 310.196 95.005C309.573 92.805 308.949 90.5317 308.326 88.185C307.703 85.8017 307.098 83.4 306.511 80.98C305.924 78.56 305.393 76.2133 304.916 73.94C304.439 76.2133 303.908 78.56 303.321 80.98C302.734 83.4 302.129 85.8017 301.506 88.185C300.883 90.5317 300.241 92.805 299.581 95.005C298.958 97.205 298.371 99.2033 297.821 101H292.816C291.423 95.3533 290.194 89.4317 289.131 83.235C288.104 77.0383 287.169 70.255 286.326 62.885H291.331C291.551 65.8183 291.826 68.7517 292.156 71.685C292.486 74.5817 292.834 77.4233 293.201 80.21C293.604 82.96 294.008 85.6 294.411 88.13C294.814 90.6233 295.236 92.8967 295.676 94.95C296.226 93.08 296.813 91.0083 297.436 88.735C298.059 86.4617 298.664 84.115 299.251 81.695C299.874 79.275 300.461 76.8367 301.011 74.38C301.561 71.9233 302.074 69.595 302.551 67.395H307.446ZM328.723 81.915C328.723 78.3217 329.053 75.26 329.713 72.73C330.373 70.2 331.308 68.1467 332.518 66.57C333.765 64.9567 335.25 63.8017 336.973 63.105C338.733 62.3717 340.695 62.005 342.858 62.005C344.508 62.005 346.012 62.2433 347.368 62.72C348.725 63.16 349.825 63.6733 350.668 64.26L349.128 68.385C348.285 67.7983 347.368 67.3217 346.378 66.955C345.388 66.5517 344.252 66.35 342.968 66.35C339.778 66.35 337.487 67.6517 336.093 70.255C334.7 72.8217 334.003 76.7083 334.003 81.915C334.003 84.7017 334.205 87.085 334.608 89.065C335.048 91.045 335.653 92.6583 336.423 93.905C337.193 95.1517 338.128 96.0683 339.228 96.655C340.328 97.2417 341.557 97.535 342.913 97.535C344.05 97.535 345.022 97.4067 345.828 97.15V82.245H350.778V100.175C349.788 100.652 348.56 101.055 347.093 101.385C345.627 101.715 344.087 101.88 342.473 101.88C340.493 101.88 338.66 101.495 336.973 100.725C335.287 99.9183 333.82 98.7083 332.573 97.095C331.363 95.445 330.41 93.3733 329.713 90.88C329.053 88.35 328.723 85.3617 328.723 81.915Z" fill="black"/>
<path d="M185.083 17H75.9167C73.0225 17.003 70.2478 17.9872 68.2012 19.7369C66.1547 21.4866 65.0035 23.8589 65 26.3333V119.667C65.0035 122.141 66.1547 124.513 68.2012 126.263C70.2478 128.013 73.0225 128.997 75.9167 129H185.083C187.978 128.997 190.752 128.013 192.799 126.263C194.845 124.513 195.997 122.141 196 119.667V26.3333C195.997 23.8589 194.845 21.4866 192.799 19.7369C190.752 17.9872 187.978 17.003 185.083 17V17ZM75.9167 20.7333H185.083C186.821 20.7333 188.487 21.3233 189.715 22.3735C190.943 23.4237 191.633 24.8481 191.633 26.3333V35.6667H69.3667V26.3333C69.3667 24.8481 70.0568 23.4237 71.2851 22.3735C72.5135 21.3233 74.1795 20.7333 75.9167 20.7333V20.7333ZM69.3667 119.667V39.4H191.633V76.0781C190.393 76.2872 189.25 76.801 188.345 77.5565L183.917 81.3291C182.874 80.9055 181.806 80.5279 180.717 80.1979V74.8667C180.717 73.3815 180.027 71.9571 178.798 70.9069C177.57 69.8567 175.904 69.2667 174.167 69.2667H165.433C163.696 69.2667 162.03 69.8567 160.802 70.9069C159.573 71.9571 158.883 73.3815 158.883 74.8667V80.1979C157.792 80.5299 156.721 80.9106 155.676 81.3384L151.257 77.5584C150.012 76.5417 148.357 75.9744 146.635 75.9744C144.913 75.9744 143.258 76.5417 142.013 77.5584L135.834 82.8392C135.226 83.3579 134.744 83.9741 134.415 84.6523C134.086 85.3306 133.917 86.0576 133.917 86.7919C133.917 87.5261 134.086 88.2532 134.415 88.9314C134.744 89.6097 135.226 90.2258 135.834 90.7445L140.255 94.5245C139.753 95.4176 139.307 96.333 138.919 97.2667H132.683C130.946 97.2667 129.28 97.8567 128.052 98.9069C126.823 99.9571 126.133 101.381 126.133 102.867V110.333C126.133 111.819 126.823 113.243 128.052 114.293C129.28 115.343 130.946 115.933 132.683 115.933H138.919C139.307 116.866 139.753 117.781 140.255 118.674L135.834 122.454C134.948 123.227 134.346 124.205 134.1 125.267H75.9167C74.1795 125.267 72.5135 124.677 71.2851 123.626C70.0568 122.576 69.3667 121.152 69.3667 119.667V119.667ZM185.083 125.267H138.764C138.813 125.206 138.865 125.148 138.921 125.093L144.467 120.352C144.8 120.066 145.017 119.696 145.084 119.297C145.151 118.897 145.065 118.49 144.838 118.136C143.906 116.67 143.152 115.125 142.589 113.527C142.454 113.144 142.177 112.807 141.801 112.568C141.425 112.329 140.968 112.2 140.5 112.2H132.683C132.104 112.2 131.549 112.003 131.139 111.653C130.73 111.303 130.5 110.828 130.5 110.333V102.867C130.5 102.372 130.73 101.897 131.139 101.547C131.549 101.197 132.104 101 132.683 101H140.5C140.968 101 141.425 100.871 141.801 100.632C142.177 100.393 142.454 100.056 142.589 99.6728C143.152 98.0747 143.906 96.5303 144.838 95.064C145.065 94.71 145.151 94.3028 145.084 93.9033C145.017 93.5038 144.8 93.1337 144.467 92.8483L138.921 88.1051C138.719 87.9332 138.559 87.7288 138.449 87.5038C138.34 87.2788 138.284 87.0374 138.284 86.7937C138.284 86.55 138.34 86.3087 138.449 86.0837C138.559 85.8586 138.719 85.6543 138.921 85.4824L145.1 80.1997C145.513 79.8613 146.063 79.6724 146.635 79.6724C147.207 79.6724 147.757 79.8613 148.17 80.1997L153.715 84.9411C154.049 85.2264 154.482 85.4115 154.949 85.4687C155.417 85.5259 155.893 85.4521 156.307 85.2584C158.02 84.4596 159.826 83.8158 161.695 83.3376C162.145 83.222 162.539 82.9856 162.819 82.6635C163.099 82.3414 163.25 81.9507 163.25 81.5493V74.8667C163.25 74.3716 163.48 73.8968 163.889 73.5467C164.299 73.1967 164.854 73 165.433 73H174.167C174.746 73 175.301 73.1967 175.711 73.5467C176.12 73.8968 176.35 74.3716 176.35 74.8667V81.5493C176.35 81.9507 176.501 82.3414 176.781 82.6635C177.061 82.9856 177.455 83.222 177.905 83.3376C179.776 83.8186 181.586 84.4589 183.308 85.2491C183.721 85.4385 184.194 85.5094 184.658 85.4512C185.121 85.3931 185.551 85.209 185.882 84.9261L191.43 80.1997C191.495 80.1513 191.562 80.1064 191.633 80.0653V119.667C191.633 121.152 190.943 122.576 189.715 123.626C188.487 124.677 186.821 125.267 185.083 125.267Z" fill="black"/>
<path d="M80.2833 33.8C81.5788 33.8 82.8452 33.4716 83.9223 32.8562C84.9995 32.2409 85.839 31.3663 86.3347 30.343C86.8305 29.3198 86.9602 28.1938 86.7075 27.1075C86.4547 26.0212 85.8309 25.0234 84.9149 24.2402C83.9989 23.457 82.8318 22.9237 81.5612 22.7076C80.2906 22.4915 78.9736 22.6024 77.7768 23.0263C76.5799 23.4501 75.5569 24.1679 74.8372 25.0888C74.1175 26.0097 73.7333 27.0924 73.7333 28.2C73.7333 29.6852 74.4234 31.1096 75.6518 32.1598C76.8802 33.21 78.5462 33.8 80.2833 33.8ZM80.2833 26.3333C80.7152 26.3333 81.1373 26.4428 81.4963 26.6479C81.8554 26.853 82.1352 27.1446 82.3005 27.4857C82.4657 27.8268 82.509 28.2021 82.4247 28.5642C82.3405 28.9263 82.1325 29.2589 81.8272 29.5199C81.5218 29.781 81.1328 29.9588 80.7093 30.0308C80.2858 30.1028 79.8468 30.0659 79.4478 29.9246C79.0489 29.7833 78.7079 29.544 78.468 29.2371C78.2281 28.9301 78.1 28.5692 78.1 28.2C78.1 27.7049 78.33 27.2301 78.7395 26.8801C79.1489 26.53 79.7043 26.3333 80.2833 26.3333V26.3333Z" fill="black"/>
<path d="M95.5667 33.8C96.8621 33.8 98.1285 33.4716 99.2056 32.8562C100.283 32.2409 101.122 31.3663 101.618 30.343C102.114 29.3198 102.244 28.1938 101.991 27.1075C101.738 26.0212 101.114 25.0234 100.198 24.2402C99.2822 23.457 98.1151 22.9237 96.8445 22.7076C95.5739 22.4915 94.2569 22.6024 93.0601 23.0263C91.8632 23.4501 90.8403 24.1679 90.1205 25.0888C89.4008 26.0097 89.0167 27.0924 89.0167 28.2C89.0167 29.6852 89.7067 31.1096 90.9351 32.1598C92.1635 33.21 93.8295 33.8 95.5667 33.8ZM95.5667 26.3333C95.9985 26.3333 96.4206 26.4428 96.7797 26.6479C97.1387 26.853 97.4185 27.1446 97.5838 27.4857C97.749 27.8268 97.7923 28.2021 97.708 28.5642C97.6238 28.9263 97.4159 29.2589 97.1105 29.5199C96.8052 29.781 96.4161 29.9588 95.9926 30.0308C95.5691 30.1028 95.1301 30.0659 94.7311 29.9246C94.3322 29.7833 93.9912 29.544 93.7513 29.2371C93.5114 28.9301 93.3833 28.5692 93.3833 28.2C93.3833 27.7049 93.6134 27.2301 94.0228 26.8801C94.4323 26.53 94.9876 26.3333 95.5667 26.3333V26.3333Z" fill="black"/>
<path d="M110.85 33.8C112.145 33.8 113.412 33.4716 114.489 32.8562C115.566 32.2409 116.406 31.3663 116.901 30.343C117.397 29.3198 117.527 28.1938 117.274 27.1075C117.021 26.0212 116.398 25.0234 115.482 24.2402C114.566 23.457 113.398 22.9237 112.128 22.7076C110.857 22.4915 109.54 22.6024 108.343 23.0263C107.147 23.4501 106.124 24.1679 105.404 25.0888C104.684 26.0097 104.3 27.0924 104.3 28.2C104.3 29.6852 104.99 31.1096 106.218 32.1598C107.447 33.21 109.113 33.8 110.85 33.8ZM110.85 26.3333C111.282 26.3333 111.704 26.4428 112.063 26.6479C112.422 26.853 112.702 27.1446 112.867 27.4857C113.032 27.8268 113.076 28.2021 112.991 28.5642C112.907 28.9263 112.699 29.2589 112.394 29.5199C112.089 29.781 111.699 29.9588 111.276 30.0308C110.852 30.1028 110.413 30.0659 110.014 29.9246C109.616 29.7833 109.275 29.544 109.035 29.2371C108.795 28.9301 108.667 28.5692 108.667 28.2C108.667 27.7049 108.897 27.2301 109.306 26.8801C109.716 26.53 110.271 26.3333 110.85 26.3333V26.3333Z" fill="black"/>
<path d="M169.8 91.6667C166.345 91.6667 162.968 92.5425 160.096 94.1834C157.224 95.8243 154.985 98.1565 153.663 100.885C152.341 103.614 151.995 106.617 152.669 109.513C153.343 112.41 155.006 115.071 157.449 117.159C159.892 119.248 163.004 120.67 166.392 121.246C169.781 121.823 173.293 121.527 176.484 120.397C179.676 119.266 182.404 117.352 184.323 114.897C186.242 112.441 187.267 109.554 187.267 106.6C187.261 102.641 185.42 98.845 182.145 96.0454C178.871 93.2459 174.431 91.6711 169.8 91.6667ZM169.8 117.8C167.209 117.8 164.676 117.143 162.522 115.912C160.368 114.682 158.689 112.933 157.697 110.886C156.706 108.84 156.446 106.588 156.952 104.415C157.457 102.242 158.705 100.247 160.537 98.6804C162.369 97.114 164.703 96.0473 167.244 95.6152C169.785 95.183 172.419 95.4048 174.813 96.2525C177.207 97.1002 179.253 98.5358 180.692 100.378C182.132 102.219 182.9 104.385 182.9 106.6C182.897 109.57 181.515 112.417 179.059 114.516C176.603 116.616 173.273 117.797 169.8 117.8V117.8Z" fill="black"/>
<path d="M80.2833 73C80.8624 73 81.4177 72.8033 81.8272 72.4533C82.2366 72.1032 82.4667 71.6284 82.4667 71.1333V61.8H91.2V71.1333C91.2 71.6284 91.43 72.1032 91.8395 72.4533C92.2489 72.8033 92.8043 73 93.3833 73C93.9624 73 94.5177 72.8033 94.9272 72.4533C95.3366 72.1032 95.5667 71.6284 95.5667 71.1333V54.3333C95.5667 52.3531 94.6466 50.4539 93.0087 49.0536C91.3709 47.6533 89.1496 46.8667 86.8333 46.8667C84.5171 46.8667 82.2958 47.6533 80.6579 49.0536C79.0201 50.4539 78.1 52.3531 78.1 54.3333V71.1333C78.1 71.6284 78.33 72.1032 78.7395 72.4533C79.1489 72.8033 79.7043 73 80.2833 73ZM86.8333 50.6C87.9915 50.6 89.1021 50.9933 89.921 51.6935C90.7399 52.3936 91.2 53.3432 91.2 54.3333V58.0667H82.4667V54.3333C82.4667 53.3432 82.9267 52.3936 83.7456 51.6935C84.5645 50.9933 85.6752 50.6 86.8333 50.6Z" fill="black"/>
<path d="M102.117 73C102.696 73 103.251 72.8033 103.661 72.4533C104.07 72.1032 104.3 71.6284 104.3 71.1333V61.8H110.85C112.587 61.8 114.253 61.21 115.482 60.1598C116.71 59.1096 117.4 57.6852 117.4 56.2V52.4667C117.4 50.9815 116.71 49.5571 115.482 48.5069C114.253 47.4567 112.587 46.8667 110.85 46.8667H102.117C101.538 46.8667 100.982 47.0633 100.573 47.4134C100.163 47.7635 99.9333 48.2383 99.9333 48.7333V71.1333C99.9333 71.6284 100.163 72.1032 100.573 72.4533C100.982 72.8033 101.538 73 102.117 73ZM104.3 50.6H110.85C111.429 50.6 111.984 50.7967 112.394 51.1467C112.803 51.4968 113.033 51.9716 113.033 52.4667V56.2C113.033 56.6951 112.803 57.1699 112.394 57.5199C111.984 57.87 111.429 58.0667 110.85 58.0667H104.3V50.6Z" fill="black"/>
<path d="M123.95 73C124.529 73 125.084 72.8033 125.494 72.4533C125.903 72.1032 126.133 71.6284 126.133 71.1333V48.7333C126.133 48.2383 125.903 47.7635 125.494 47.4134C125.084 47.0633 124.529 46.8667 123.95 46.8667C123.371 46.8667 122.816 47.0633 122.406 47.4134C121.997 47.7635 121.767 48.2383 121.767 48.7333V71.1333C121.767 71.6284 121.997 72.1032 122.406 72.4533C122.816 72.8033 123.371 73 123.95 73Z" fill="black"/>
<path d="M80.2833 84.2H123.95C124.529 84.2 125.084 84.0033 125.494 83.6533C125.903 83.3032 126.133 82.8284 126.133 82.3333C126.133 81.8383 125.903 81.3635 125.494 81.0134C125.084 80.6633 124.529 80.4667 123.95 80.4667H80.2833C79.7043 80.4667 79.1489 80.6633 78.7395 81.0134C78.33 81.3635 78.1 81.8383 78.1 82.3333C78.1 82.8284 78.33 83.3032 78.7395 83.6533C79.1489 84.0033 79.7043 84.2 80.2833 84.2V84.2Z" fill="black"/>
<path d="M123.95 91.6667H80.2833C79.7043 91.6667 79.1489 91.8633 78.7395 92.2134C78.33 92.5635 78.1 93.0383 78.1 93.5333C78.1 94.0284 78.33 94.5032 78.7395 94.8533C79.1489 95.2033 79.7043 95.4 80.2833 95.4H123.95C124.529 95.4 125.084 95.2033 125.494 94.8533C125.903 94.5032 126.133 94.0284 126.133 93.5333C126.133 93.0383 125.903 92.5635 125.494 92.2134C125.084 91.8633 124.529 91.6667 123.95 91.6667Z" fill="black"/>
<path d="M117.4 102.867H80.2833C79.7043 102.867 79.1489 103.063 78.7395 103.413C78.33 103.763 78.1 104.238 78.1 104.733C78.1 105.228 78.33 105.703 78.7395 106.053C79.1489 106.403 79.7043 106.6 80.2833 106.6H117.4C117.979 106.6 118.534 106.403 118.944 106.053C119.353 105.703 119.583 105.228 119.583 104.733C119.583 104.238 119.353 103.763 118.944 103.413C118.534 103.063 117.979 102.867 117.4 102.867Z" fill="black"/>
<path d="M222.5 24.35C224.15 24.35 225.475 24.925 226.475 26.075C227.492 27.225 228 28.9583 228 31.275C228 33.5583 227.492 35.2917 226.475 36.475C225.475 37.6583 224.142 38.25 222.475 38.25C221.442 38.25 220.583 38.0583 219.9 37.675C219.233 37.275 218.708 36.8167 218.325 36.3H218.175C218.208 36.5833 218.242 36.9417 218.275 37.375C218.308 37.8083 218.325 38.1833 218.325 38.5V44H216.125V24.6H217.925L218.225 26.425H218.325C218.725 25.8417 219.25 25.35 219.9 24.95C220.55 24.55 221.417 24.35 222.5 24.35ZM222.1 26.2C220.733 26.2 219.767 26.5833 219.2 27.35C218.65 28.1167 218.358 29.2833 218.325 30.85V31.275C218.325 32.925 218.592 34.2 219.125 35.1C219.675 35.9833 220.683 36.425 222.15 36.425C222.967 36.425 223.633 36.2 224.15 35.75C224.683 35.3 225.075 34.6917 225.325 33.925C225.592 33.1417 225.725 32.25 225.725 31.25C225.725 29.7167 225.425 28.4917 224.825 27.575C224.242 26.6583 223.333 26.2 222.1 26.2ZM243.156 31.275C243.156 33.4917 242.589 35.2083 241.456 36.425C240.339 37.6417 238.823 38.25 236.906 38.25C235.723 38.25 234.664 37.9833 233.731 37.45C232.814 36.9 232.089 36.1083 231.556 35.075C231.023 34.025 230.756 32.7583 230.756 31.275C230.756 29.0583 231.314 27.35 232.431 26.15C233.548 24.95 235.064 24.35 236.981 24.35C238.198 24.35 239.264 24.625 240.181 25.175C241.114 25.7083 241.839 26.4917 242.356 27.525C242.889 28.5417 243.156 29.7917 243.156 31.275ZM233.031 31.275C233.031 32.8583 233.339 34.1167 233.956 35.05C234.589 35.9667 235.589 36.425 236.956 36.425C238.306 36.425 239.298 35.9667 239.931 35.05C240.564 34.1167 240.881 32.8583 240.881 31.275C240.881 29.6917 240.564 28.45 239.931 27.55C239.298 26.65 238.298 26.2 236.931 26.2C235.564 26.2 234.573 26.65 233.956 27.55C233.339 28.45 233.031 29.6917 233.031 31.275ZM254.804 30.425C254.588 29.7417 254.396 29.075 254.229 28.425C254.079 27.7583 253.963 27.2417 253.879 26.875H253.779C253.713 27.2417 253.604 27.7583 253.454 28.425C253.304 29.075 253.113 29.75 252.879 30.45L250.479 37.975H247.979L244.304 24.575H246.579L248.429 31.725C248.613 32.4417 248.788 33.1667 248.954 33.9C249.121 34.6333 249.238 35.2417 249.304 35.725H249.404C249.471 35.4417 249.546 35.0917 249.629 34.675C249.729 34.2583 249.838 33.825 249.954 33.375C250.071 32.9083 250.188 32.4917 250.304 32.125L252.679 24.575H255.079L257.379 32.125C257.563 32.6917 257.738 33.3083 257.904 33.975C258.088 34.6417 258.213 35.2167 258.279 35.7H258.379C258.429 35.2833 258.538 34.7083 258.704 33.975C258.888 33.2417 259.079 32.4917 259.279 31.725L261.154 24.575H263.404L259.679 37.975H257.104L254.804 30.425ZM270.983 24.35C272.133 24.35 273.116 24.6 273.933 25.1C274.766 25.6 275.399 26.3083 275.833 27.225C276.283 28.125 276.508 29.1833 276.508 30.4V31.725H267.333C267.366 33.2417 267.749 34.4 268.483 35.2C269.233 35.9833 270.274 36.375 271.608 36.375C272.458 36.375 273.208 36.3 273.858 36.15C274.524 35.9833 275.208 35.75 275.908 35.45V37.375C275.224 37.675 274.549 37.8917 273.883 38.025C273.216 38.175 272.424 38.25 271.508 38.25C270.241 38.25 269.116 37.9917 268.133 37.475C267.166 36.9583 266.408 36.1917 265.858 35.175C265.324 34.1417 265.058 32.8833 265.058 31.4C265.058 29.9333 265.299 28.675 265.783 27.625C266.283 26.575 266.974 25.7667 267.858 25.2C268.758 24.6333 269.799 24.35 270.983 24.35ZM270.958 26.15C269.908 26.15 269.074 26.4917 268.458 27.175C267.858 27.8417 267.499 28.775 267.383 29.975H274.208C274.191 28.8417 273.924 27.925 273.408 27.225C272.891 26.5083 272.074 26.15 270.958 26.15ZM286.169 24.35C286.419 24.35 286.686 24.3667 286.969 24.4C287.269 24.4167 287.527 24.45 287.744 24.5L287.469 26.525C287.252 26.475 287.011 26.4333 286.744 26.4C286.494 26.3667 286.252 26.35 286.019 26.35C285.336 26.35 284.694 26.5417 284.094 26.925C283.494 27.2917 283.011 27.8167 282.644 28.5C282.294 29.1667 282.119 29.95 282.119 30.85V38H279.919V24.6H281.719L281.969 27.05H282.069C282.502 26.3167 283.061 25.6833 283.744 25.15C284.427 24.6167 285.236 24.35 286.169 24.35ZM294.933 24.35C296.083 24.35 297.066 24.6 297.883 25.1C298.716 25.6 299.349 26.3083 299.783 27.225C300.233 28.125 300.458 29.1833 300.458 30.4V31.725H291.283C291.316 33.2417 291.699 34.4 292.433 35.2C293.183 35.9833 294.224 36.375 295.558 36.375C296.408 36.375 297.158 36.3 297.808 36.15C298.474 35.9833 299.158 35.75 299.858 35.45V37.375C299.174 37.675 298.499 37.8917 297.833 38.025C297.166 38.175 296.374 38.25 295.458 38.25C294.191 38.25 293.066 37.9917 292.083 37.475C291.116 36.9583 290.358 36.1917 289.808 35.175C289.274 34.1417 289.008 32.8833 289.008 31.4C289.008 29.9333 289.249 28.675 289.733 27.625C290.233 26.575 290.924 25.7667 291.808 25.2C292.708 24.6333 293.749 24.35 294.933 24.35ZM294.908 26.15C293.858 26.15 293.024 26.4917 292.408 27.175C291.808 27.8417 291.449 28.775 291.333 29.975H298.158C298.141 28.8417 297.874 27.925 297.358 27.225C296.841 26.5083 296.024 26.15 294.908 26.15ZM308.619 38.25C306.952 38.25 305.619 37.675 304.619 36.525C303.619 35.3583 303.119 33.625 303.119 31.325C303.119 29.025 303.619 27.2917 304.619 26.125C305.636 24.9417 306.977 24.35 308.644 24.35C309.677 24.35 310.519 24.5417 311.169 24.925C311.836 25.3083 312.377 25.775 312.794 26.325H312.944C312.927 26.1083 312.894 25.7917 312.844 25.375C312.811 24.9417 312.794 24.6 312.794 24.35V19H314.994V38H313.219L312.894 36.2H312.794C312.394 36.7667 311.861 37.25 311.194 37.65C310.527 38.05 309.669 38.25 308.619 38.25ZM308.969 36.425C310.386 36.425 311.377 36.0417 311.944 35.275C312.527 34.4917 312.819 33.3167 312.819 31.75V31.35C312.819 29.6833 312.544 28.4083 311.994 27.525C311.444 26.625 310.427 26.175 308.944 26.175C307.761 26.175 306.869 26.65 306.269 27.6C305.686 28.5333 305.394 29.7917 305.394 31.375C305.394 32.975 305.686 34.2167 306.269 35.1C306.869 35.9833 307.769 36.425 308.969 36.425ZM329.238 23.625C329.238 24.1917 329.221 24.725 329.188 25.225C329.171 25.7083 329.146 26.0917 329.113 26.375H329.238C329.621 25.8083 330.146 25.3333 330.813 24.95C331.48 24.5667 332.338 24.375 333.388 24.375C335.055 24.375 336.388 24.9583 337.388 26.125C338.405 27.275 338.913 29 338.913 31.3C338.913 33.6 338.405 35.3333 337.388 36.5C336.371 37.6667 335.038 38.25 333.388 38.25C332.338 38.25 331.48 38.0583 330.813 37.675C330.146 37.2917 329.621 36.8333 329.238 36.3H329.063L328.613 38H327.038V19H329.238V23.625ZM333.013 26.2C331.596 26.2 330.613 26.6083 330.063 27.425C329.513 28.2417 329.238 29.5083 329.238 31.225V31.325C329.238 32.975 329.505 34.2417 330.038 35.125C330.588 35.9917 331.596 36.425 333.063 36.425C334.263 36.425 335.155 35.9833 335.738 35.1C336.338 34.2167 336.638 32.9417 336.638 31.275C336.638 27.8917 335.43 26.2 333.013 26.2ZM339.831 24.6H342.181L345.081 32.225C345.331 32.8917 345.556 33.5333 345.756 34.15C345.956 34.75 346.106 35.325 346.206 35.875H346.306C346.406 35.4583 346.564 34.9167 346.781 34.25C346.997 33.5667 347.222 32.8833 347.456 32.2L350.181 24.6H352.556L346.781 39.85C346.314 41.1167 345.706 42.125 344.956 42.875C344.222 43.625 343.206 44 341.906 44C341.506 44 341.156 43.975 340.856 43.925C340.556 43.8917 340.297 43.85 340.081 43.8V42.05C340.264 42.0833 340.481 42.1167 340.731 42.15C340.997 42.1833 341.272 42.2 341.556 42.2C342.322 42.2 342.939 41.9833 343.406 41.55C343.889 41.1167 344.264 40.5417 344.531 39.825L345.231 38.05L339.831 24.6Z" fill="black"/>
</svg>
